<svg width="603" height="204" viewBox="0 0 603 204" fill="none" xmlns="http://www.w3.org/2000/svg">
<line x1="1" y1="-1" x2="15" y2="-1" transform="matrix(0.00895747 -0.99996 -0.99996 -0.00895747 8.75537 16.374)" stroke="#DDDDDD" stroke-width="2" stroke-linecap="round"/>
<line x1="1" y1="-1" x2="15" y2="-1" transform="matrix(0.99996 0.00895751 0.00895751 -0.99996 1.83618 7.31201)" stroke="#DDDDDD" stroke-width="2" stroke-linecap="round"/>
<line x1="1" y1="-1" x2="15" y2="-1" transform="matrix(0.00895747 -0.99996 -0.99996 -0.00895747 8.75537 16.374)" stroke="#DDDDDD" stroke-width="2" stroke-linecap="round"/>
<line x1="1" y1="-1" x2="15" y2="-1" transform="matrix(0.99996 0.00895751 0.00895751 -0.99996 1.83618 7.31201)" stroke="#DDDDDD" stroke-width="2" stroke-linecap="round"/>
<line x1="1" y1="-1" x2="15" y2="-1" transform="matrix(0.00895747 -0.99996 -0.99996 -0.00895747 41.5212 42.6685)" stroke="#DDDDDD" stroke-width="2" stroke-linecap="round"/>
<line x1="1" y1="-1" x2="15" y2="-1" transform="matrix(0.99996 0.00895751 0.00895751 -0.99996 34.6021 33.6064)" stroke="#DDDDDD" stroke-width="2" stroke-linecap="round"/>
<line x1="1" y1="-1" x2="15" y2="-1" transform="matrix(0.00895747 -0.99996 -0.99996 -0.00895747 74.2869 68.9629)" stroke="#DDDDDD" stroke-width="2" stroke-linecap="round"/>
<line x1="1" y1="-1" x2="15" y2="-1" transform="matrix(0.99996 0.00895751 0.00895751 -0.99996 67.3677 59.9009)" stroke="#DDDDDD" stroke-width="2" stroke-linecap="round"/>
<line x1="1" y1="-1" x2="15" y2="-1" transform="matrix(0.00895747 -0.99996 -0.99996 -0.00895747 107.053 95.2573)" stroke="#DDDDDD" stroke-width="2" stroke-linecap="round"/>
<line x1="1" y1="-1" x2="15" y2="-1" transform="matrix(0.99996 0.00895751 0.00895751 -0.99996 100.134 86.1953)" stroke="#DDDDDD" stroke-width="2" stroke-linecap="round"/>
<line x1="1" y1="-1" x2="15" y2="-1" transform="matrix(0.00895747 -0.99996 -0.99996 -0.00895747 139.819 121.552)" stroke="#DDDDDD" stroke-width="2" stroke-linecap="round"/>
<line x1="1" y1="-1" x2="15" y2="-1" transform="matrix(0.99996 0.00895751 0.00895751 -0.99996 132.899 112.49)" stroke="#DDDDDD" stroke-width="2" stroke-linecap="round"/>
<line x1="1" y1="-1" x2="15" y2="-1" transform="matrix(0.00895747 -0.99996 -0.99996 -0.00895747 172.584 147.847)" stroke="#DDDDDD" stroke-width="2" stroke-linecap="round"/>
<line x1="1" y1="-1" x2="15" y2="-1" transform="matrix(0.99996 0.00895751 0.00895751 -0.99996 165.665 138.785)" stroke="#DDDDDD" stroke-width="2" stroke-linecap="round"/>
<line x1="1" y1="-1" x2="15" y2="-1" transform="matrix(0.00895747 -0.99996 -0.99996 -0.00895747 205.35 174.141)" stroke="#DDDDDD" stroke-width="2" stroke-linecap="round"/>
<line x1="1" y1="-1" x2="15" y2="-1" transform="matrix(0.99996 0.00895751 0.00895751 -0.99996 198.431 165.079)" stroke="#DDDDDD" stroke-width="2" stroke-linecap="round"/>
<line x1="1" y1="-1" x2="15" y2="-1" transform="matrix(0.00895747 -0.99996 -0.99996 -0.00895747 238.116 200.436)" stroke="#DDDDDD" stroke-width="2" stroke-linecap="round"/>
<line x1="1" y1="-1" x2="15" y2="-1" transform="matrix(0.99996 0.00895751 0.00895751 -0.99996 231.197 191.374)" stroke="#DDDDDD" stroke-width="2" stroke-linecap="round"/>
<line x1="1" y1="-1" x2="15" y2="-1" transform="matrix(0.00895747 -0.99996 -0.99996 -0.00895747 67.7529 16.9023)" stroke="#DDDDDD" stroke-width="2" stroke-linecap="round"/>
<line x1="1" y1="-1" x2="15" y2="-1" transform="matrix(0.99996 0.00895751 0.00895751 -0.99996 60.8337 7.84033)" stroke="#DDDDDD" stroke-width="2" stroke-linecap="round"/>
<line x1="1" y1="-1" x2="15" y2="-1" transform="matrix(0.00895747 -0.99996 -0.99996 -0.00895747 67.7529 16.9023)" stroke="#DDDDDD" stroke-width="2" stroke-linecap="round"/>
<line x1="1" y1="-1" x2="15" y2="-1" transform="matrix(0.99996 0.00895751 0.00895751 -0.99996 60.8337 7.84033)" stroke="#DDDDDD" stroke-width="2" stroke-linecap="round"/>
<line x1="1" y1="-1" x2="15" y2="-1" transform="matrix(0.00895747 -0.99996 -0.99996 -0.00895747 100.519 43.1968)" stroke="#DDDDDD" stroke-width="2" stroke-linecap="round"/>
<line x1="1" y1="-1" x2="15" y2="-1" transform="matrix(0.99996 0.00895751 0.00895751 -0.99996 93.5996 34.1348)" stroke="#DDDDDD" stroke-width="2" stroke-linecap="round"/>
<line x1="1" y1="-1" x2="15" y2="-1" transform="matrix(0.00895747 -0.99996 -0.99996 -0.00895747 133.285 69.4917)" stroke="#DDDDDD" stroke-width="2" stroke-linecap="round"/>
<line x1="1" y1="-1" x2="15" y2="-1" transform="matrix(0.99996 0.00895751 0.00895751 -0.99996 126.365 60.4297)" stroke="#DDDDDD" stroke-width="2" stroke-linecap="round"/>
<line x1="1" y1="-1" x2="15" y2="-1" transform="matrix(0.00895747 -0.99996 -0.99996 -0.00895747 166.05 95.7861)" stroke="#DDDDDD" stroke-width="2" stroke-linecap="round"/>
<line x1="1" y1="-1" x2="15" y2="-1" transform="matrix(0.99996 0.00895751 0.00895751 -0.99996 159.131 86.7241)" stroke="#DDDDDD" stroke-width="2" stroke-linecap="round"/>
<line x1="1" y1="-1" x2="15" y2="-1" transform="matrix(0.00895747 -0.99996 -0.99996 -0.00895747 198.816 122.081)" stroke="#DDDDDD" stroke-width="2" stroke-linecap="round"/>
<line x1="1" y1="-1" x2="15" y2="-1" transform="matrix(0.99996 0.00895751 0.00895751 -0.99996 191.897 113.019)" stroke="#DDDDDD" stroke-width="2" stroke-linecap="round"/>
<line x1="1" y1="-1" x2="15" y2="-1" transform="matrix(0.00895747 -0.99996 -0.99996 -0.00895747 231.582 148.375)" stroke="#DDDDDD" stroke-width="2" stroke-linecap="round"/>
<line x1="1" y1="-1" x2="15" y2="-1" transform="matrix(0.99996 0.00895751 0.00895751 -0.99996 224.663 139.313)" stroke="#DDDDDD" stroke-width="2" stroke-linecap="round"/>
<line x1="1" y1="-1" x2="15" y2="-1" transform="matrix(0.00895747 -0.99996 -0.99996 -0.00895747 264.348 174.67)" stroke="#DDDDDD" stroke-width="2" stroke-linecap="round"/>
<line x1="1" y1="-1" x2="15" y2="-1" transform="matrix(0.99996 0.00895751 0.00895751 -0.99996 257.428 165.608)" stroke="#DDDDDD" stroke-width="2" stroke-linecap="round"/>
<line x1="1" y1="-1" x2="15" y2="-1" transform="matrix(0.00895747 -0.99996 -0.99996 -0.00895747 297.114 200.964)" stroke="#DDDDDD" stroke-width="2" stroke-linecap="round"/>
<line x1="1" y1="-1" x2="15" y2="-1" transform="matrix(0.99996 0.00895751 0.00895751 -0.99996 290.194 191.902)" stroke="#DDDDDD" stroke-width="2" stroke-linecap="round"/>
<line x1="1" y1="-1" x2="15" y2="-1" transform="matrix(0.00895747 -0.99996 -0.99996 -0.00895747 126.751 17.4307)" stroke="#DDDDDD" stroke-width="2" stroke-linecap="round"/>
<line x1="1" y1="-1" x2="15" y2="-1" transform="matrix(0.99996 0.00895751 0.00895751 -0.99996 119.832 8.36865)" stroke="#DDDDDD" stroke-width="2" stroke-linecap="round"/>
<line x1="1" y1="-1" x2="15" y2="-1" transform="matrix(0.00895747 -0.99996 -0.99996 -0.00895747 126.751 17.4307)" stroke="#DDDDDD" stroke-width="2" stroke-linecap="round"/>
<line x1="1" y1="-1" x2="15" y2="-1" transform="matrix(0.99996 0.00895751 0.00895751 -0.99996 119.832 8.36865)" stroke="#DDDDDD" stroke-width="2" stroke-linecap="round"/>
<line x1="1" y1="-1" x2="15" y2="-1" transform="matrix(0.00895747 -0.99996 -0.99996 -0.00895747 159.516 43.7256)" stroke="#DDDDDD" stroke-width="2" stroke-linecap="round"/>
<line x1="1" y1="-1" x2="15" y2="-1" transform="matrix(0.99996 0.00895751 0.00895751 -0.99996 152.597 34.6636)" stroke="#DDDDDD" stroke-width="2" stroke-linecap="round"/>
<line x1="1" y1="-1" x2="15" y2="-1" transform="matrix(0.00895747 -0.99996 -0.99996 -0.00895747 192.282 70.02)" stroke="#DDDDDD" stroke-width="2" stroke-linecap="round"/>
<line x1="1" y1="-1" x2="15" y2="-1" transform="matrix(0.99996 0.00895751 0.00895751 -0.99996 185.363 60.958)" stroke="#DDDDDD" stroke-width="2" stroke-linecap="round"/>
<line x1="1" y1="-1" x2="15" y2="-1" transform="matrix(0.00895747 -0.99996 -0.99996 -0.00895747 225.048 96.3145)" stroke="#DDDDDD" stroke-width="2" stroke-linecap="round"/>
<line x1="1" y1="-1" x2="15" y2="-1" transform="matrix(0.99996 0.00895751 0.00895751 -0.99996 218.129 87.2524)" stroke="#DDDDDD" stroke-width="2" stroke-linecap="round"/>
<line x1="1" y1="-1" x2="15" y2="-1" transform="matrix(0.00895747 -0.99996 -0.99996 -0.00895747 257.814 122.609)" stroke="#DDDDDD" stroke-width="2" stroke-linecap="round"/>
<line x1="1" y1="-1" x2="15" y2="-1" transform="matrix(0.99996 0.00895751 0.00895751 -0.99996 250.895 113.547)" stroke="#DDDDDD" stroke-width="2" stroke-linecap="round"/>
<line x1="1" y1="-1" x2="15" y2="-1" transform="matrix(0.00895747 -0.99996 -0.99996 -0.00895747 290.58 148.904)" stroke="#DDDDDD" stroke-width="2" stroke-linecap="round"/>
<line x1="1" y1="-1" x2="15" y2="-1" transform="matrix(0.99996 0.00895751 0.00895751 -0.99996 283.66 139.842)" stroke="#DDDDDD" stroke-width="2" stroke-linecap="round"/>
<line x1="1" y1="-1" x2="15" y2="-1" transform="matrix(0.00895747 -0.99996 -0.99996 -0.00895747 323.345 175.198)" stroke="#DDDDDD" stroke-width="2" stroke-linecap="round"/>
<line x1="1" y1="-1" x2="15" y2="-1" transform="matrix(0.99996 0.00895751 0.00895751 -0.99996 316.426 166.136)" stroke="#DDDDDD" stroke-width="2" stroke-linecap="round"/>
<line x1="1" y1="-1" x2="15" y2="-1" transform="matrix(0.00895747 -0.99996 -0.99996 -0.00895747 356.111 201.493)" stroke="#DDDDDD" stroke-width="2" stroke-linecap="round"/>
<line x1="1" y1="-1" x2="15" y2="-1" transform="matrix(0.99996 0.00895751 0.00895751 -0.99996 349.192 192.431)" stroke="#DDDDDD" stroke-width="2" stroke-linecap="round"/>
<line x1="1" y1="-1" x2="15" y2="-1" transform="matrix(0.00895747 -0.99996 -0.99996 -0.00895747 185.748 17.9595)" stroke="#DDDDDD" stroke-width="2" stroke-linecap="round"/>
<line x1="1" y1="-1" x2="15" y2="-1" transform="matrix(0.99996 0.00895751 0.00895751 -0.99996 178.829 8.89746)" stroke="#DDDDDD" stroke-width="2" stroke-linecap="round"/>
<line x1="1" y1="-1" x2="15" y2="-1" transform="matrix(0.00895747 -0.99996 -0.99996 -0.00895747 185.748 17.9595)" stroke="#DDDDDD" stroke-width="2" stroke-linecap="round"/>
<line x1="1" y1="-1" x2="15" y2="-1" transform="matrix(0.99996 0.00895751 0.00895751 -0.99996 178.829 8.89746)" stroke="#DDDDDD" stroke-width="2" stroke-linecap="round"/>
<line x1="1" y1="-1" x2="15" y2="-1" transform="matrix(0.00895747 -0.99996 -0.99996 -0.00895747 218.514 44.2539)" stroke="#DDDDDD" stroke-width="2" stroke-linecap="round"/>
<line x1="1" y1="-1" x2="15" y2="-1" transform="matrix(0.99996 0.00895751 0.00895751 -0.99996 211.595 35.1919)" stroke="#DDDDDD" stroke-width="2" stroke-linecap="round"/>
<line x1="1" y1="-1" x2="15" y2="-1" transform="matrix(0.00895747 -0.99996 -0.99996 -0.00895747 251.28 70.5483)" stroke="#DDDDDD" stroke-width="2" stroke-linecap="round"/>
<line x1="1" y1="-1" x2="15" y2="-1" transform="matrix(0.99996 0.00895751 0.00895751 -0.99996 244.361 61.4863)" stroke="#DDDDDD" stroke-width="2" stroke-linecap="round"/>
<line x1="1" y1="-1" x2="15" y2="-1" transform="matrix(0.00895747 -0.99996 -0.99996 -0.00895747 284.046 96.8428)" stroke="#DDDDDD" stroke-width="2" stroke-linecap="round"/>
<line x1="1" y1="-1" x2="15" y2="-1" transform="matrix(0.99996 0.00895751 0.00895751 -0.99996 277.126 87.7808)" stroke="#DDDDDD" stroke-width="2" stroke-linecap="round"/>
<line x1="1" y1="-1" x2="15" y2="-1" transform="matrix(0.00895747 -0.99996 -0.99996 -0.00895747 316.811 123.138)" stroke="#DDDDDD" stroke-width="2" stroke-linecap="round"/>
<line x1="1" y1="-1" x2="15" y2="-1" transform="matrix(0.99996 0.00895751 0.00895751 -0.99996 309.892 114.076)" stroke="#DDDDDD" stroke-width="2" stroke-linecap="round"/>
<line x1="1" y1="-1" x2="15" y2="-1" transform="matrix(0.00895747 -0.99996 -0.99996 -0.00895747 349.577 149.432)" stroke="#DDDDDD" stroke-width="2" stroke-linecap="round"/>
<line x1="1" y1="-1" x2="15" y2="-1" transform="matrix(0.99996 0.00895751 0.00895751 -0.99996 342.658 140.37)" stroke="#DDDDDD" stroke-width="2" stroke-linecap="round"/>
<line x1="1" y1="-1" x2="15" y2="-1" transform="matrix(0.00895747 -0.99996 -0.99996 -0.00895747 382.343 175.727)" stroke="#DDDDDD" stroke-width="2" stroke-linecap="round"/>
<line x1="1" y1="-1" x2="15" y2="-1" transform="matrix(0.99996 0.00895751 0.00895751 -0.99996 375.424 166.665)" stroke="#DDDDDD" stroke-width="2" stroke-linecap="round"/>
<line x1="1" y1="-1" x2="15" y2="-1" transform="matrix(0.00895747 -0.99996 -0.99996 -0.00895747 415.108 202.021)" stroke="#DDDDDD" stroke-width="2" stroke-linecap="round"/>
<line x1="1" y1="-1" x2="15" y2="-1" transform="matrix(0.99996 0.00895751 0.00895751 -0.99996 408.189 192.959)" stroke="#DDDDDD" stroke-width="2" stroke-linecap="round"/>
<line x1="1" y1="-1" x2="15" y2="-1" transform="matrix(0.00895747 -0.99996 -0.99996 -0.00895747 244.746 18.4878)" stroke="#DDDDDD" stroke-width="2" stroke-linecap="round"/>
<line x1="1" y1="-1" x2="15" y2="-1" transform="matrix(0.99996 0.00895751 0.00895751 -0.99996 237.827 9.42578)" stroke="#DDDDDD" stroke-width="2" stroke-linecap="round"/>
<line x1="1" y1="-1" x2="15" y2="-1" transform="matrix(0.00895747 -0.99996 -0.99996 -0.00895747 244.746 18.4878)" stroke="#DDDDDD" stroke-width="2" stroke-linecap="round"/>
<line x1="1" y1="-1" x2="15" y2="-1" transform="matrix(0.99996 0.00895751 0.00895751 -0.99996 237.827 9.42578)" stroke="#DDDDDD" stroke-width="2" stroke-linecap="round"/>
<line x1="1" y1="-1" x2="15" y2="-1" transform="matrix(0.00895747 -0.99996 -0.99996 -0.00895747 277.512 44.7822)" stroke="#DDDDDD" stroke-width="2" stroke-linecap="round"/>
<line x1="1" y1="-1" x2="15" y2="-1" transform="matrix(0.99996 0.00895751 0.00895751 -0.99996 270.593 35.7202)" stroke="#DDDDDD" stroke-width="2" stroke-linecap="round"/>
<line x1="1" y1="-1" x2="15" y2="-1" transform="matrix(0.00895747 -0.99996 -0.99996 -0.00895747 310.277 71.0771)" stroke="#DDDDDD" stroke-width="2" stroke-linecap="round"/>
<line x1="1" y1="-1" x2="15" y2="-1" transform="matrix(0.99996 0.00895751 0.00895751 -0.99996 303.358 62.0151)" stroke="#DDDDDD" stroke-width="2" stroke-linecap="round"/>
<line x1="1" y1="-1" x2="15" y2="-1" transform="matrix(0.00895747 -0.99996 -0.99996 -0.00895747 343.043 97.3716)" stroke="#DDDDDD" stroke-width="2" stroke-linecap="round"/>
<line x1="1" y1="-1" x2="15" y2="-1" transform="matrix(0.99996 0.00895751 0.00895751 -0.99996 336.124 88.3096)" stroke="#DDDDDD" stroke-width="2" stroke-linecap="round"/>
<line x1="1" y1="-1" x2="15" y2="-1" transform="matrix(0.00895747 -0.99996 -0.99996 -0.00895747 375.809 123.666)" stroke="#DDDDDD" stroke-width="2" stroke-linecap="round"/>
<line x1="1" y1="-1" x2="15" y2="-1" transform="matrix(0.99996 0.00895751 0.00895751 -0.99996 368.89 114.604)" stroke="#DDDDDD" stroke-width="2" stroke-linecap="round"/>
<line x1="1" y1="-1" x2="15" y2="-1" transform="matrix(0.00895747 -0.99996 -0.99996 -0.00895747 408.575 149.96)" stroke="#DDDDDD" stroke-width="2" stroke-linecap="round"/>
<line x1="1" y1="-1" x2="15" y2="-1" transform="matrix(0.99996 0.00895751 0.00895751 -0.99996 401.656 140.898)" stroke="#DDDDDD" stroke-width="2" stroke-linecap="round"/>
<line x1="1" y1="-1" x2="15" y2="-1" transform="matrix(0.00895747 -0.99996 -0.99996 -0.00895747 441.34 176.255)" stroke="#DDDDDD" stroke-width="2" stroke-linecap="round"/>
<line x1="1" y1="-1" x2="15" y2="-1" transform="matrix(0.99996 0.00895751 0.00895751 -0.99996 434.421 167.193)" stroke="#DDDDDD" stroke-width="2" stroke-linecap="round"/>
<line x1="1" y1="-1" x2="15" y2="-1" transform="matrix(0.00895747 -0.99996 -0.99996 -0.00895747 474.106 202.55)" stroke="#DDDDDD" stroke-width="2" stroke-linecap="round"/>
<line x1="1" y1="-1" x2="15" y2="-1" transform="matrix(0.99996 0.00895751 0.00895751 -0.99996 467.187 193.488)" stroke="#DDDDDD" stroke-width="2" stroke-linecap="round"/>
<line x1="1" y1="-1" x2="15" y2="-1" transform="matrix(0.00895747 -0.99996 -0.99996 -0.00895747 303.743 19.0161)" stroke="#DDDDDD" stroke-width="2" stroke-linecap="round"/>
<line x1="1" y1="-1" x2="15" y2="-1" transform="matrix(0.99996 0.00895751 0.00895751 -0.99996 296.824 9.9541)" stroke="#DDDDDD" stroke-width="2" stroke-linecap="round"/>
<line x1="1" y1="-1" x2="15" y2="-1" transform="matrix(0.00895747 -0.99996 -0.99996 -0.00895747 303.743 19.0161)" stroke="#DDDDDD" stroke-width="2" stroke-linecap="round"/>
<line x1="1" y1="-1" x2="15" y2="-1" transform="matrix(0.99996 0.00895751 0.00895751 -0.99996 296.824 9.9541)" stroke="#DDDDDD" stroke-width="2" stroke-linecap="round"/>
<line x1="1" y1="-1" x2="15" y2="-1" transform="matrix(0.00895747 -0.99996 -0.99996 -0.00895747 336.509 45.311)" stroke="#DDDDDD" stroke-width="2" stroke-linecap="round"/>
<line x1="1" y1="-1" x2="15" y2="-1" transform="matrix(0.99996 0.00895751 0.00895751 -0.99996 329.59 36.249)" stroke="#DDDDDD" stroke-width="2" stroke-linecap="round"/>
<line x1="1" y1="-1" x2="15" y2="-1" transform="matrix(0.00895747 -0.99996 -0.99996 -0.00895747 369.275 71.6055)" stroke="#DDDDDD" stroke-width="2" stroke-linecap="round"/>
<line x1="1" y1="-1" x2="15" y2="-1" transform="matrix(0.99996 0.00895751 0.00895751 -0.99996 362.356 62.5435)" stroke="#DDDDDD" stroke-width="2" stroke-linecap="round"/>
<line x1="1" y1="-1" x2="15" y2="-1" transform="matrix(0.00895747 -0.99996 -0.99996 -0.00895747 402.041 97.8999)" stroke="#DDDDDD" stroke-width="2" stroke-linecap="round"/>
<line x1="1" y1="-1" x2="15" y2="-1" transform="matrix(0.99996 0.00895751 0.00895751 -0.99996 395.122 88.8379)" stroke="#DDDDDD" stroke-width="2" stroke-linecap="round"/>
<line x1="1" y1="-1" x2="15" y2="-1" transform="matrix(0.00895747 -0.99996 -0.99996 -0.00895747 434.807 124.194)" stroke="#DDDDDD" stroke-width="2" stroke-linecap="round"/>
<line x1="1" y1="-1" x2="15" y2="-1" transform="matrix(0.99996 0.00895751 0.00895751 -0.99996 427.888 115.132)" stroke="#DDDDDD" stroke-width="2" stroke-linecap="round"/>
<line x1="1" y1="-1" x2="15" y2="-1" transform="matrix(0.00895747 -0.99996 -0.99996 -0.00895747 467.572 150.489)" stroke="#DDDDDD" stroke-width="2" stroke-linecap="round"/>
<line x1="1" y1="-1" x2="15" y2="-1" transform="matrix(0.99996 0.00895751 0.00895751 -0.99996 460.653 141.427)" stroke="#DDDDDD" stroke-width="2" stroke-linecap="round"/>
<line x1="1" y1="-1" x2="15" y2="-1" transform="matrix(0.00895747 -0.99996 -0.99996 -0.00895747 500.338 176.784)" stroke="#DDDDDD" stroke-width="2" stroke-linecap="round"/>
<line x1="1" y1="-1" x2="15" y2="-1" transform="matrix(0.99996 0.00895751 0.00895751 -0.99996 493.419 167.722)" stroke="#DDDDDD" stroke-width="2" stroke-linecap="round"/>
<line x1="1" y1="-1" x2="15" y2="-1" transform="matrix(0.00895747 -0.99996 -0.99996 -0.00895747 533.104 203.078)" stroke="#DDDDDD" stroke-width="2" stroke-linecap="round"/>
<line x1="1" y1="-1" x2="15" y2="-1" transform="matrix(0.99996 0.00895751 0.00895751 -0.99996 526.185 194.016)" stroke="#DDDDDD" stroke-width="2" stroke-linecap="round"/>
<line x1="1" y1="-1" x2="15" y2="-1" transform="matrix(0.00895747 -0.99996 -0.99996 -0.00895747 362.741 19.5449)" stroke="#DDDDDD" stroke-width="2" stroke-linecap="round"/>
<line x1="1" y1="-1" x2="15" y2="-1" transform="matrix(0.99996 0.00895751 0.00895751 -0.99996 355.822 10.4829)" stroke="#DDDDDD" stroke-width="2" stroke-linecap="round"/>
<line x1="1" y1="-1" x2="15" y2="-1" transform="matrix(0.00895747 -0.99996 -0.99996 -0.00895747 362.741 19.5449)" stroke="#DDDDDD" stroke-width="2" stroke-linecap="round"/>
<line x1="1" y1="-1" x2="15" y2="-1" transform="matrix(0.99996 0.00895751 0.00895751 -0.99996 355.822 10.4829)" stroke="#DDDDDD" stroke-width="2" stroke-linecap="round"/>
<line x1="1" y1="-1" x2="15" y2="-1" transform="matrix(0.00895747 -0.99996 -0.99996 -0.00895747 395.507 45.8394)" stroke="#DDDDDD" stroke-width="2" stroke-linecap="round"/>
<line x1="1" y1="-1" x2="15" y2="-1" transform="matrix(0.99996 0.00895751 0.00895751 -0.99996 388.588 36.7773)" stroke="#DDDDDD" stroke-width="2" stroke-linecap="round"/>
<line x1="1" y1="-1" x2="15" y2="-1" transform="matrix(0.00895747 -0.99996 -0.99996 -0.00895747 428.272 72.1338)" stroke="#DDDDDD" stroke-width="2" stroke-linecap="round"/>
<line x1="1" y1="-1" x2="15" y2="-1" transform="matrix(0.99996 0.00895751 0.00895751 -0.99996 421.354 63.0718)" stroke="#DDDDDD" stroke-width="2" stroke-linecap="round"/>
<line x1="1" y1="-1" x2="15" y2="-1" transform="matrix(0.00895747 -0.99996 -0.99996 -0.00895747 461.038 98.4287)" stroke="#DDDDDD" stroke-width="2" stroke-linecap="round"/>
<line x1="1" y1="-1" x2="15" y2="-1" transform="matrix(0.99996 0.00895751 0.00895751 -0.99996 454.119 89.3667)" stroke="#DDDDDD" stroke-width="2" stroke-linecap="round"/>
<line x1="1" y1="-1" x2="15" y2="-1" transform="matrix(0.00895747 -0.99996 -0.99996 -0.00895747 493.804 124.723)" stroke="#DDDDDD" stroke-width="2" stroke-linecap="round"/>
<line x1="1" y1="-1" x2="15" y2="-1" transform="matrix(0.99996 0.00895751 0.00895751 -0.99996 486.885 115.661)" stroke="#DDDDDD" stroke-width="2" stroke-linecap="round"/>
<line x1="1" y1="-1" x2="15" y2="-1" transform="matrix(0.00895747 -0.99996 -0.99996 -0.00895747 526.57 151.018)" stroke="#DDDDDD" stroke-width="2" stroke-linecap="round"/>
<line x1="1" y1="-1" x2="15" y2="-1" transform="matrix(0.99996 0.00895751 0.00895751 -0.99996 519.651 141.956)" stroke="#DDDDDD" stroke-width="2" stroke-linecap="round"/>
<line x1="1" y1="-1" x2="15" y2="-1" transform="matrix(0.00895747 -0.99996 -0.99996 -0.00895747 559.335 177.312)" stroke="#DDDDDD" stroke-width="2" stroke-linecap="round"/>
<line x1="1" y1="-1" x2="15" y2="-1" transform="matrix(0.99996 0.00895751 0.00895751 -0.99996 552.417 168.25)" stroke="#DDDDDD" stroke-width="2" stroke-linecap="round"/>
<line x1="1" y1="-1" x2="15" y2="-1" transform="matrix(0.00895747 -0.99996 -0.99996 -0.00895747 592.102 203.607)" stroke="#DDDDDD" stroke-width="2" stroke-linecap="round"/>
<line x1="1" y1="-1" x2="15" y2="-1" transform="matrix(0.99996 0.00895751 0.00895751 -0.99996 585.183 194.545)" stroke="#DDDDDD" stroke-width="2" stroke-linecap="round"/>
</svg>
