<svg width="48" height="49" viewBox="0 0 48 49" fill="none" xmlns="http://www.w3.org/2000/svg">
<path d="M46.4096 2.6749C46.3461 6.22057 46.198 6.00924 45.8806 1.90002C45.7959 1.03122 45.6478 0.32678 45.542 0.32678C45.1822 0.32678 41.6693 3.0506 40.9709 3.87244C40.6112 4.31859 40.1879 4.97606 40.0609 5.37524C39.4896 7.01893 38.8124 27.7059 39.2568 29.467C39.4896 30.3358 40.2514 30.6176 42.4099 30.6176C45.6478 30.6176 46.1557 29.9836 46.4308 25.6865C46.7694 20.6146 47.0656 7.48855 46.9175 4.15422C46.727 -0.706394 46.4731 -1.43431 46.4096 2.6749Z" fill="url(#paint0_linear)"/>
<path d="M21.4679 1.00769C16.7699 3.12101 15.1404 4.10722 12.2835 6.57274C9.74404 8.77998 8.79174 9.81315 6.71784 12.7013C2.61237 18.3603 0.707768 22.3521 0.115225 26.4613C-0.308019 29.4435 0.390334 31.3924 2.95097 34.3275C4.62278 36.253 6.2946 37.3097 8.09339 37.5445C9.29964 37.7088 11.8603 37.3331 12.9819 36.8166C13.4051 36.6287 13.6591 36.6052 13.6591 36.7461C13.6591 36.887 13.13 38.0141 12.4951 39.2586C10.9291 42.2642 7.90293 48.9329 8.11455 48.9329C8.1992 48.9329 8.68593 48.0171 9.19383 46.937C10.1038 45.0115 10.5905 44.2836 10.8022 44.5184C10.8656 44.5888 10.5694 45.4342 10.1673 46.4439C9.74404 47.4301 9.44777 48.3223 9.51126 48.4163C9.63823 48.6511 13.6167 48.3458 14.9288 47.9936C16.4948 47.571 17.4471 46.6787 18.5264 44.5654C19.4787 42.7103 21.1293 40.1509 24.346 35.5486C25.9543 33.2474 27.4992 30.641 30.483 25.2168C31.1602 23.9958 31.9221 22.6104 32.1972 22.1643C33.6997 19.6048 34.0806 18.102 33.4458 17.3976C32.6416 16.4818 29.1921 14.8147 28.1552 14.8381C27.9224 14.8381 26.9278 15.2608 25.9332 15.7774C24.9385 16.294 23.2879 17.1393 22.2298 17.7028C14.7383 21.5772 11.6486 23.1974 11.5852 23.2444C11.3312 23.4323 11.9026 24.3715 12.4528 24.7707C13.2781 25.3108 15.2886 25.3577 17.7857 24.8646C18.7168 24.6768 19.5633 24.6298 19.648 24.7237C19.8173 24.9116 16.0292 28.152 13.13 30.3123C10.6752 32.1438 8.24152 33.2004 6.50622 33.2004C5.76554 33.2004 5.76554 33.2004 5.89252 32.2612C5.956 31.7446 6.9083 29.2791 8.00874 26.7901L10.0192 22.2817L12.9819 18.7595C15.9446 15.2138 18.2301 12.9596 23.2879 8.56865C24.8116 7.2537 26.2083 5.89179 26.3987 5.53957C26.8643 4.76469 26.8855 3.40278 26.4834 2.32264C26.1659 1.5008 24.4941 0.0919266 23.8381 0.0919266C23.6476 0.0919266 22.5895 0.514591 21.4679 1.00769Z" fill="url(#paint1_linear)"/>
<path d="M43.7431 32.8247C42.7908 33.4117 41.4788 34.891 40.8227 36.1121C40.59 36.5113 40.2937 37.0748 40.1244 37.3801L39.8281 37.8966L38.3044 36.6287C36.2729 34.9145 35.8919 34.7736 34.855 35.2902C33.2043 36.1121 33.2467 37.2392 34.982 39.9865C35.8285 41.3249 41.1402 47.0543 41.5423 47.0543C41.7539 47.0543 42.7273 45.9507 45.0129 43.0625C47.3195 40.1274 48.3565 37.1218 47.8909 34.6562C47.4465 32.3786 45.6689 31.6037 43.7431 32.8247ZM45.2668 35.4546C45.5208 36.5817 45.2033 38.2958 44.4203 40.0569C43.6373 41.8415 42.5369 43.2973 42.2406 42.9686C42.1348 42.8747 42.0713 41.818 42.0925 40.6439C42.0925 38.695 42.156 38.3428 42.7697 37.0278C43.7431 34.938 44.9705 34.1396 45.2668 35.4546Z" fill="url(#paint2_linear)"/>
<defs>
<linearGradient id="paint0_linear" x1="43.0349" y1="30.6176" x2="43.0349" y2="0.000118256" gradientUnits="userSpaceOnUse">
<stop stop-color="#F8A347"/>
<stop offset="1" stop-color="#E65232"/>
</linearGradient>
<linearGradient id="paint1_linear" x1="16.8701" y1="48.9329" x2="16.8701" y2="0.0919266" gradientUnits="userSpaceOnUse">
<stop stop-color="#F8A347"/>
<stop offset="1" stop-color="#E65232"/>
</linearGradient>
<linearGradient id="paint2_linear" x1="40.824" y1="47.0543" x2="40.824" y2="32.2495" gradientUnits="userSpaceOnUse">
<stop stop-color="#F8A347"/>
<stop offset="1" stop-color="#E65232"/>
</linearGradient>
</defs>
</svg>
