<svg width="180" height="77" viewBox="0 0 180 77" fill="none" xmlns="http://www.w3.org/2000/svg">
<path d="M177.718 0.152454C177.614 0.258881 177.545 0.368187 177.482 0.517761L177.396 0.733494L177.433 1.46699C177.522 3.15546 177.514 7.0703 177.416 8.39922C177.376 8.97738 177.292 9.80867 177.281 9.79717C177.272 9.79142 177.237 9.32256 177.197 8.75302C176.915 4.55629 176.616 1.69135 176.438 1.51301C176.398 1.47274 172.454 4.05003 171.289 4.88132C170.613 5.36457 170.314 5.60331 169.805 6.0693C168.81 6.98113 168.188 7.83831 167.895 8.70124C167.791 9.00327 167.455 10.8931 167.409 11.4195C167.374 11.8107 167.354 12.3256 167.32 13.7638C167.302 14.4081 167.253 15.3947 167.19 16.2663C167.135 17.0573 167.058 18.1647 167.017 18.7257C166.977 19.2866 166.925 20.0057 166.902 20.3221C166.877 20.6385 166.819 22.396 166.77 24.234C166.724 26.0692 166.667 27.9907 166.644 28.5056C166.557 30.5335 166.471 35.1041 166.497 36.1857C166.526 37.3132 166.6 39.5166 166.629 40.1408C166.658 40.8024 166.71 41.0469 166.885 41.4064C167.21 42.0622 167.817 42.4563 168.7 42.5829C169.114 42.6433 171.177 42.6979 172.109 42.6749C173.311 42.6433 174.214 42.58 174.626 42.4966C176.17 42.1802 177.111 40.9577 177.416 38.8608C177.473 38.4667 177.496 38.1071 177.574 36.574C177.646 35.1386 177.709 34.2872 177.948 31.5546C178.262 27.9274 178.356 24.585 178.46 13.5912C178.509 8.35032 178.509 8.43373 178.322 5.91109C178.181 4.02415 177.991 0.747875 177.991 0.20998C177.991 0.0143852 177.988 0 177.928 0C177.89 0 177.807 0.0604057 177.718 0.152454Z" fill="url(#paint0_linear)"/>
<path d="M35.0347 4.40383C34.7816 4.43548 34.5658 4.50451 33.7087 4.8238C30.3835 6.06067 25.7121 8.13746 23.5836 9.32831C20.4252 11.0916 17.4826 13.3237 13.8727 16.6891C13.2082 17.3076 12.958 17.5751 12.2504 18.4092C10.9732 19.9194 8.42472 23.1151 7.23675 24.6971C6.00563 26.3396 4.87231 28.0108 3.98924 29.4979C3.13494 30.9362 2.30365 32.5959 1.73699 33.9996C0.853917 36.1857 0.232605 38.6278 0.0370072 40.6585C-0.0262745 41.3172 -0.00613941 42.4966 0.0801539 43.0661C0.281505 44.4324 0.710095 45.583 1.46372 46.7854C2.12243 47.841 2.70059 48.6579 3.19247 49.2332C3.52326 49.6187 5.13407 51.2496 5.66333 51.7328C6.8887 52.8547 7.71424 53.3839 9.05754 53.9132C11.5255 54.8883 13.9993 55.0638 16.7837 54.4655C17.8221 54.2411 19.2286 53.7809 20.2469 53.3293C20.4224 53.2545 20.5633 53.197 20.5633 53.2056C20.5633 53.2113 20.4051 53.4731 20.2095 53.7837C18.2823 56.8587 15.9466 61.1992 13.5534 66.1525C13.214 66.8543 12.6531 67.9991 12.305 68.6952C11.957 69.3913 11.6809 69.9695 11.6895 69.981C11.7326 70.0213 11.9627 69.9896 12.1094 69.9206C12.1957 69.8803 12.3338 69.794 12.4172 69.7279C12.5553 69.6186 12.5898 69.561 12.8717 68.9973C13.6167 67.5073 14.6867 65.557 15.5813 64.0498L15.8028 63.6816L15.9035 63.6989C15.9581 63.7075 16.0502 63.7305 16.1106 63.7449L16.2141 63.7708L15.9552 64.3259C14.7702 66.8543 13.8612 69.026 13.8612 69.3396C13.8612 69.4115 13.8641 69.4115 14.028 69.3942C14.1172 69.3856 14.7155 69.3453 15.3569 69.3079C18.6476 69.1037 20.3821 68.957 21.3831 68.7902C22.502 68.6032 23.7245 68.2235 24.4177 67.8467C24.8924 67.5907 25.4101 67.1937 25.6604 66.8975C25.9912 66.5091 26.9663 65.2982 27.0612 65.1543C27.2395 64.8926 27.5243 64.3633 28.0421 63.3393C28.6806 62.0737 28.7583 61.9442 29.2157 61.3689C29.6989 60.7562 31.7038 58.0898 32.5437 56.9392C34.3587 54.4482 34.5889 54.1462 36.1536 52.1787C38.38 49.377 38.636 49.0204 40.5028 46.0893C42.0935 43.5896 43.8941 40.6614 46.8252 35.8117C47.2884 35.0437 47.9499 33.9881 48.2922 33.4674C48.9711 32.4348 49.1782 32.104 49.4227 31.6409C49.9836 30.5824 50.2568 29.4951 50.2108 28.5084C50.1763 27.7893 50.0325 27.5276 49.4054 27.0558C48.1714 26.1296 46.808 25.4652 44.7398 24.7806C43.9143 24.5044 41.9497 23.9119 41.7771 23.8831C41.6563 23.863 41.291 23.9435 41.0292 24.0471C40.7703 24.1506 39.4328 24.7806 36.6283 26.1181C33.4181 27.6513 31.5628 28.5257 21.6995 33.151C19.01 34.4109 16.8009 35.4522 16.7894 35.4637C16.7549 35.4953 17.0972 36.1742 17.2985 36.4733C17.73 37.1205 18.2708 37.6009 18.8576 37.8569C19.6083 38.1848 20.3217 38.2797 21.6765 38.2279C24.4264 38.1273 26.2472 37.8914 28.0104 37.4082L28.6001 37.2471L28.9165 37.2816C29.092 37.3017 29.2559 37.3247 29.2789 37.3334C29.3106 37.3449 29.1783 37.4887 28.8331 37.8252C28.3815 38.2653 28.2405 38.3775 26.9778 39.3095C21.6564 43.2358 19.8068 44.5561 18.3197 45.4823C15.8085 47.05 13.562 47.9877 11.3529 48.3933C10.3634 48.5774 9.489 48.6435 9.20999 48.5601C8.81304 48.4422 8.72674 48.1172 8.91084 47.4613C9.10931 46.7652 9.49763 45.7959 10.0211 44.6999C10.4095 43.8859 10.6626 43.3365 11.5255 41.4352C13.6282 36.8012 14.6896 34.9603 16.5737 32.7052C17.3273 31.802 17.9141 31.1634 19.7435 29.2534C20.9401 28.0051 21.1674 27.7634 21.7254 27.1392C22.3352 26.4547 22.9277 25.8535 23.6123 25.2149C25.7898 23.1956 29.8801 19.7008 31.9684 18.0784C32.3337 17.7966 33.211 17.0976 33.9215 16.528C36.2744 14.6325 37.0367 14.0399 38.055 13.3093C38.6676 12.8692 38.9064 12.6506 39.1883 12.2767C39.5363 11.8164 39.7866 11.2498 39.9275 10.6026C39.9851 10.3466 39.9937 10.2315 39.9937 9.6217C39.9908 8.98314 39.9851 8.90547 39.916 8.5718C39.7291 7.69448 39.3724 6.9351 38.8776 6.35406C38.6964 6.14121 38.1959 5.68961 37.7903 5.3732C36.8123 4.61382 35.8976 4.29166 35.0347 4.40383Z" fill="url(#paint1_linear)"/>
<path d="M137.117 4.99638C136.254 5.05391 135.624 5.14883 134.902 5.3243C133.748 5.60331 133.461 5.73275 132.995 6.19298C132.814 6.3742 132.716 6.42598 132.451 6.48351C132.411 6.49213 131.956 6.5324 131.444 6.57267C130.187 6.67335 128.991 6.79416 127.777 6.94661C125.95 7.17673 124.216 7.46149 123.842 7.58806C123.178 7.81817 122.66 8.34169 122.263 9.17873C121.782 10.197 121.544 11.3015 121.506 12.6851C121.46 14.4196 121.78 16.1368 122.418 17.5923C122.832 18.5416 123.295 19.2146 123.992 19.8762C124.797 20.6442 125.559 21.0009 126.592 21.0843C127.061 21.1217 127.446 21.0815 128.473 20.8859C129.532 20.6845 130.268 20.5666 131.091 20.4688C131.424 20.4285 132.161 20.3336 132.73 20.253C134.217 20.0488 134.298 20.0402 134.312 20.0546C134.358 20.1006 134.934 27.7807 135.29 33.0791C135.563 37.1694 136.455 51.4711 136.685 55.4722C136.924 59.6086 137.102 62.1686 137.278 63.9721C137.333 64.533 137.376 64.6538 137.56 64.7631C137.784 64.8955 137.873 64.8753 138.518 64.5445C138.831 64.3834 139.11 64.231 139.136 64.208C139.173 64.1792 139.878 63.0028 140.123 62.5713C140.126 62.5684 140.269 62.5569 140.448 62.5454C140.707 62.5281 140.77 62.5166 140.781 62.4792C140.787 62.4534 140.81 62.3613 140.83 62.275C140.876 62.065 141.121 61.4006 141.262 61.1014C141.437 60.7246 141.676 60.4801 141.926 60.4226C142.033 60.3996 142.22 60.4772 142.309 60.5837C142.349 60.6326 142.386 60.6671 142.392 60.6613C142.398 60.6556 142.657 59.994 142.97 59.1886L143.543 57.7302L143.874 57.736L144.204 57.7446L144.998 55.7369L145.792 53.732L145.884 52.4146C146.678 41.1504 147.101 29.1556 146.986 20.9837C146.971 19.7986 146.96 18.8263 146.963 18.8206C146.989 18.7976 149.301 18.6537 154.102 18.3805C158.308 18.1417 159.93 18.0439 160.416 18.0065L160.776 17.9778L161.006 17.8224C162.714 16.6863 163.735 14.7849 164.026 12.1961C164.193 10.709 164.124 8.88246 163.825 6.88046C163.758 6.43748 163.747 6.40009 163.609 6.1297L163.462 5.84781L162.895 5.83343C162.251 5.81617 158.618 5.85069 156.36 5.89671C154.77 5.92835 154.148 5.93986 148.996 6.05491C147.233 6.09231 145.021 6.14121 144.084 6.15847L142.378 6.19011L141.926 5.95999C140.986 5.4825 140.172 5.2265 139.116 5.0798C138.489 4.99063 137.675 4.95611 137.117 4.99638Z" fill="url(#paint2_linear)"/>
<path d="M101.924 5.34156C99.8296 5.43936 97.8448 5.80466 95.8687 6.44899C92.65 7.49889 90.2021 8.64947 87.1387 10.5537C85.9565 11.2872 83.943 12.6477 82.6515 13.5826C80.1978 15.3631 78.3138 16.7553 77.9427 17.0631C77.8075 17.1753 77.7759 17.2184 77.7759 17.2874C77.7759 17.3967 77.8334 17.4514 78.098 17.5981L78.3138 17.7189L78.6848 17.7016L79.0559 17.6844L79.1221 17.7851C79.1853 17.8771 79.1968 17.8857 79.2659 17.8598C79.4039 17.8081 79.7319 17.7477 79.8843 17.7477C80.077 17.7477 80.1633 17.8052 80.1633 17.9318V18.0267L80.7645 17.9059L81.3657 17.7851L81.429 17.8972C81.4807 17.9864 81.5066 18.0094 81.5555 17.9979C81.5872 17.9893 81.8547 17.9346 82.1481 17.8771C82.6083 17.7851 82.7205 17.7505 82.9794 17.6269C83.3274 17.4629 83.6783 17.3421 84.3198 17.1637C84.5729 17.0918 84.898 16.9912 85.0447 16.9365C85.3035 16.8387 85.3093 16.8387 85.3237 16.8962C85.3438 16.9825 86.0428 21.4094 86.3448 23.3855C87.3717 30.0646 88.0534 34.9804 88.3324 37.7246C88.4964 39.3498 88.4849 38.9039 88.505 45.2609C88.5252 51.7904 88.5079 51.2525 88.7092 51.8306C88.9192 52.4405 89.3536 52.9496 89.9001 53.2228C90.1014 53.3235 90.4668 53.4328 90.7199 53.4702C91.3297 53.5594 93.3144 53.7435 95.9751 53.9621C96.9445 54.0398 98.1612 54.1462 98.679 54.198C99.8814 54.3159 100.514 54.3245 100.854 54.2267C101.184 54.1318 101.406 54.034 101.673 53.8585C102.41 53.3782 102.913 52.5267 103.034 51.5488C103.066 51.2928 103.063 51.1087 103.008 50.1278C102.933 48.8104 102.881 47.7432 102.801 45.7355C102.706 43.3739 102.646 42.2406 102.439 38.8464C102.381 37.9115 102.335 36.9364 102.332 36.6747C102.329 36.2374 102.335 36.1857 102.395 36.0275C102.568 35.5931 102.887 35.5155 103.333 35.7945C106.805 37.9662 107.228 38.2395 108.05 38.8521C109.345 39.8157 110.216 40.6873 111.215 42.0105C112.65 43.9204 113.904 46.236 115.429 49.7913C117.315 54.198 118.762 58.7341 119.726 63.2674C119.901 64.0929 119.933 64.3144 120.016 65.3097C120.152 66.9262 120.221 67.234 121.009 69.7682C121.463 71.2323 121.604 71.7213 121.831 72.6503C122.159 73.9793 122.349 74.4596 122.683 74.776C122.809 74.8969 123.06 75.2391 123.546 75.9525C123.923 76.5048 124.236 76.9621 124.242 76.965C124.248 76.9708 124.443 76.9104 124.679 76.8327C125.099 76.6946 125.597 76.5738 126.232 76.4559C126.609 76.3868 126.934 76.2804 127.087 76.1769C127.196 76.1021 127.4 75.8547 127.8 75.3226C127.918 75.1672 128.088 74.94 128.177 74.8192C128.269 74.6984 128.398 74.4941 128.465 74.3647C128.534 74.2324 128.6 74.126 128.614 74.126C128.654 74.126 128.893 74.382 129 74.5373C129.051 74.615 129.106 74.6725 129.12 74.6667C129.146 74.6581 130.098 73.4414 130.098 73.4155C130.098 73.3752 130.372 72.1872 130.656 71.005C131.189 68.7758 131.41 67.7144 131.591 66.5091C131.905 64.4323 131.925 62.7237 131.652 61.3546C131.623 61.205 131.583 60.8425 131.565 60.5491C131.528 59.8904 131.476 59.3497 131.35 58.3487C131.183 57.0341 131.137 56.5998 131.062 55.5441C130.947 53.942 130.838 53.1135 130.659 52.452C130.403 51.5085 129.647 49.5094 128.959 47.959C126.825 43.1495 124.495 39.81 121.452 37.2097C120.094 36.0447 118.814 35.1991 116.939 34.2239C115.869 33.6659 115.558 33.4732 113.015 31.7588C112.5 31.4137 112.135 31.1519 112.17 31.1519C112.449 31.1519 113.406 30.3551 114.356 29.3369C116.294 27.2543 117.948 24.9014 118.374 23.6156C118.558 23.0576 118.791 21.8725 118.9 20.9261C118.961 20.3882 118.969 18.9299 118.915 18.4524C118.731 16.8531 118.276 15.4264 117.431 13.7954C116.171 11.3533 114.617 9.42899 112.825 8.08281C110.754 6.52953 108.373 5.68961 105.275 5.4221C104.311 5.34156 102.735 5.30129 101.924 5.34156ZM102.887 11.8337C104.308 12.0063 105.393 12.3169 106.526 12.8721C108.036 13.6142 109.138 14.6727 109.791 16.0074C110.231 16.9077 110.418 17.6901 110.444 18.7746C110.467 19.6749 110.38 20.4256 110.15 21.3432C109.975 22.0393 109.653 22.977 109.451 23.3711C108.994 24.2743 107.812 25.189 106.066 26.0002C105.056 26.4662 104.101 26.8315 102.254 27.4557C100.963 27.8929 100.5 28.0626 100.339 28.1633L100.244 28.2208L100.201 28.1546C99.6311 27.2859 96.6597 15.714 96.3577 13.1856C96.3261 12.9239 96.3261 12.921 96.3951 12.852C96.5706 12.6765 97.7326 12.2709 98.6301 12.0696C99.0875 11.9689 99.7548 11.8625 100.183 11.8251C100.382 11.8078 100.589 11.7877 100.644 11.7819C100.905 11.7532 102.522 11.7906 102.887 11.8337Z" fill="url(#paint3_linear)"/>
<path d="M63.385 7.13359C61.8375 7.19687 60.4885 7.34644 59.2746 7.59382C58.6878 7.71463 58.5612 7.74915 58.5612 7.78941C58.5612 7.83544 58.2679 10.0129 58.1701 10.7004C57.2784 16.9135 56.0559 22.6319 54.5314 27.7145C52.9292 33.0532 50.9991 38.6594 49.138 43.3681C48.9741 43.7881 48.8389 44.1333 48.8389 44.1362C48.8389 44.1419 48.9079 44.1592 48.9942 44.1793C49.2761 44.2426 49.4343 44.4353 49.6989 45.0394L49.8169 45.3069V45.7383C49.8169 46.9838 50.0901 48.1718 50.6108 49.1872C51.3155 50.5679 52.2331 51.1806 53.7288 51.2755C54.1603 51.3014 54.678 51.2496 55.5928 51.0828C58.0636 50.6398 60.8451 50.2371 62.7033 50.053C65.5855 49.7654 68.741 49.6848 70.743 49.8459C73.3433 50.0559 73.5907 50.099 74.3673 50.5104C74.8247 50.7491 75.1957 50.9044 75.6732 51.0569C75.9925 51.1604 76.0788 51.2036 76.4038 51.4193C76.6081 51.5545 76.7806 51.6581 76.7893 51.6494C76.7979 51.6408 76.8526 51.5142 76.913 51.3675C76.9705 51.2208 77.1229 50.8728 77.2495 50.5967C77.5285 49.984 77.5371 49.9667 77.7644 49.2965C77.8651 49.0002 77.9801 48.6896 78.0233 48.6062C78.0981 48.4566 78.1009 48.4566 78.1297 48.5256C78.2448 48.8018 78.4749 49.2591 78.5755 49.4058C78.6417 49.5036 78.7337 49.6618 78.7769 49.7596L78.8574 49.9351L79.2975 49.5755C79.5392 49.377 79.752 49.216 79.7664 49.216C79.821 49.216 80.4798 49.5899 80.94 49.8833C81.1845 50.0386 81.3945 50.1623 81.4117 50.1566C81.4261 50.1508 81.5527 49.9667 81.6936 49.7481C81.8346 49.5266 81.9611 49.3339 81.9755 49.3195C81.9956 49.2994 82.2229 49.5065 82.6515 49.9351C83.0081 50.2917 83.2987 50.5736 83.2987 50.565C83.2987 50.5564 83.1865 50.2515 83.0513 49.889C81.5153 45.8045 80.2036 41.8551 79.1048 38.0122C77.5717 32.6591 76.4153 28.0856 75.3913 23.328C74.5025 19.2031 73.7 14.5088 73.4468 11.966C73.3577 11.0801 73.3117 10.7953 73.1995 10.4559C72.9492 9.71088 72.4976 9.29955 71.2234 8.66098C69.6039 7.84982 67.7256 7.2544 66.5031 7.16235C65.9451 7.12208 64.1157 7.10482 63.385 7.13359ZM69.1034 31.9832C70.743 37.2873 72.0777 41.6337 72.069 41.6423C72.0546 41.6567 71.7814 41.5732 70.6423 41.2051C68.6719 40.5694 67.5789 40.4198 62.6803 40.1149C61.8203 40.0602 61.1127 40.0113 61.104 40.0027C61.0983 39.997 61.1357 39.8848 61.1932 39.7553C61.616 38.763 62.3927 36.0188 64.0265 29.7281C65.2576 24.9934 65.6172 23.6588 65.948 22.6405C66.0458 22.3356 66.086 22.2407 66.1033 22.2809C66.1148 22.3126 67.4667 26.6761 69.1034 31.9832Z" fill="url(#paint4_linear)"/>
<path d="M175.397 44.4554C174.585 44.5705 173.751 44.9272 172.814 45.5629C171.792 46.259 171.324 46.6876 170.44 47.7518C169.995 48.2869 169.672 48.7155 169.385 49.1613C168.95 49.8286 168.384 50.798 168.067 51.4078C167.794 51.94 167.74 52.0291 167.699 52.009C167.673 51.9946 167.535 51.8824 167.391 51.7587C166.39 50.8987 163.922 48.9801 163.226 48.5227C163.042 48.399 162.887 48.3271 162.665 48.2552C161.952 48.0251 161.446 48.0165 160.819 48.2265C160.448 48.3501 160.206 48.4767 159.668 48.8363C158.972 49.3023 158.618 49.705 158.44 50.2371C158.368 50.4442 158.362 50.5075 158.362 50.8843C158.362 51.2237 158.374 51.3503 158.426 51.5603C158.512 51.9054 158.687 52.3311 158.88 52.6821C159.027 52.9438 159.217 53.2372 160.376 54.9832C161.086 56.059 161.489 56.5538 162.415 57.4972C163.074 58.1675 163.669 58.7255 164.544 59.4992C165.151 60.0343 165.318 60.1925 166.736 61.5732C169.057 63.834 169.943 64.5819 170.294 64.5819C170.533 64.5819 170.944 64.2655 171.735 63.4716C172.373 62.8302 173.049 62.0765 173.53 61.4696C173.95 60.9403 173.984 60.9001 174.913 59.8732C177.166 57.3851 177.787 56.5797 178.446 55.2939C178.984 54.2411 179.355 53.2228 179.685 51.9054C179.947 50.8613 180.019 50.2486 179.996 49.2936C179.976 48.3818 179.855 47.6656 179.582 46.8199C179.248 45.7786 178.69 45.0739 177.888 44.6741C177.424 44.4439 177.355 44.4324 176.467 44.4238C175.914 44.4181 175.592 44.4267 175.397 44.4554ZM175.112 48.0798C175.325 48.1891 175.632 48.96 175.759 49.705C175.909 50.5823 175.808 51.5344 175.463 52.5383C175.253 53.1481 174.847 54.1462 174.557 54.7646C173.915 56.1309 173.098 57.3966 172.166 58.458C171.951 58.7053 171.663 58.9268 171.597 58.9009C171.577 58.8923 171.519 58.8175 171.47 58.7312C171.381 58.5874 171.37 58.5356 171.303 58.0035C170.987 55.4435 171.088 53.9966 171.703 52.2995C172.405 50.3665 173.162 49.239 174.352 48.353C174.775 48.0366 174.928 47.982 175.112 48.0798Z" fill="url(#paint5_linear)"/>
<path d="M61.3485 52.987C57.8996 53.056 54.9743 53.358 52.2187 53.9218C50.139 54.3504 48.4879 54.8941 47.0497 55.6218L46.5147 55.8922L46.3795 56.2C46.2069 56.594 45.9049 57.4972 45.7927 57.9603C45.1253 60.7102 45.3871 63.765 46.4543 65.6405C46.9203 66.4602 47.6652 67.2052 48.3642 67.5504C48.8762 67.8064 49.253 67.8927 49.86 67.8956C50.4755 67.8956 50.9041 67.8179 51.7153 67.5533C55.5179 66.3164 62.4876 65.1169 69.1178 64.5618C75.003 64.0699 79.9879 64.0613 83.5978 64.5388L84.1673 64.6136L84.4463 64.7689C84.5988 64.8552 84.7685 64.9501 84.826 64.9789L84.9296 65.0335L85.0245 64.6394C85.0763 64.4237 85.1885 64.0239 85.2748 63.7564C85.4416 63.2386 85.8558 61.6537 85.8788 61.4495C85.9104 61.1647 85.6171 60.5233 85.0763 59.7092C84.8692 59.3957 84.7052 59.1339 84.711 59.1282C84.7167 59.1224 84.8778 59.0822 85.0676 59.0419C85.2575 58.9987 85.4157 58.9585 85.4243 58.9498C85.4301 58.9441 85.4157 58.9153 85.3927 58.8894C85.3409 58.829 84.3974 57.6785 84.3514 57.618C84.3255 57.5864 84.337 57.5835 84.4147 57.6008C84.4665 57.6094 84.547 57.6382 84.593 57.6612C84.7369 57.736 84.7455 57.6813 84.616 57.4972C83.825 56.3668 81.4031 55.291 77.7615 54.4511C74.0221 53.5853 69.5349 53.0905 64.5155 52.9841C63.0945 52.9553 62.8788 52.9553 61.3485 52.987Z" fill="url(#paint6_linear)"/>
<defs>
<linearGradient id="paint0_linear" x1="172.49" y1="42.6803" x2="172.49" y2="0" gradientUnits="userSpaceOnUse">
<stop stop-color="#F8A347"/>
<stop offset="1" stop-color="#E65232"/>
</linearGradient>
<linearGradient id="paint1_linear" x1="25.1079" y1="69.9988" x2="25.1079" y2="4.38211" gradientUnits="userSpaceOnUse">
<stop stop-color="#F8A347"/>
<stop offset="1" stop-color="#E65232"/>
</linearGradient>
<linearGradient id="paint2_linear" x1="142.808" y1="64.8394" x2="142.808" y2="4.97971" gradientUnits="userSpaceOnUse">
<stop stop-color="#F8A347"/>
<stop offset="1" stop-color="#E65232"/>
</linearGradient>
<linearGradient id="paint3_linear" x1="104.809" y1="76.9654" x2="104.809" y2="5.32576" gradientUnits="userSpaceOnUse">
<stop stop-color="#F8A347"/>
<stop offset="1" stop-color="#E65232"/>
</linearGradient>
<linearGradient id="paint4_linear" x1="66.0688" y1="51.6499" x2="66.0688" y2="7.1193" gradientUnits="userSpaceOnUse">
<stop stop-color="#F8A347"/>
<stop offset="1" stop-color="#E65232"/>
</linearGradient>
<linearGradient id="paint5_linear" x1="169.181" y1="64.5819" x2="169.181" y2="44.4221" gradientUnits="userSpaceOnUse">
<stop stop-color="#F8A347"/>
<stop offset="1" stop-color="#E65232"/>
</linearGradient>
<linearGradient id="paint6_linear" x1="65.6542" y1="67.8956" x2="65.6542" y2="52.9629" gradientUnits="userSpaceOnUse">
<stop stop-color="#F8A347"/>
<stop offset="1" stop-color="#E65232"/>
</linearGradient>
</defs>
</svg>
