<svg width="1235" height="1259" viewBox="0 0 1235 1259" fill="none" xmlns="http://www.w3.org/2000/svg">
<path d="M1194.08 68.8201C1192.45 160.047 1188.63 154.61 1180.47 48.8831C1178.29 26.5295 1174.48 8.40491 1171.76 8.40491C1162.5 8.40491 1072.11 78.4866 1054.15 99.6319C1044.89 111.111 1034 128.027 1030.73 138.298C1016.03 180.588 998.609 712.846 1010.04 758.158C1016.03 780.511 1035.63 787.761 1091.17 787.761C1174.48 787.761 1187.55 771.449 1194.62 660.889C1203.34 530.392 1210.96 192.671 1207.15 106.882C1202.25 -18.1778 1195.71 -36.9066 1194.08 68.8201Z" fill="#4A0D44" fill-opacity="0.05"/>
<path d="M552.352 25.9254C431.476 80.2991 389.55 105.673 316.045 169.109C250.706 225.9 226.204 252.482 172.845 326.793C67.2141 472.394 18.2103 575.1 2.96465 680.826C-7.92508 757.554 10.043 807.698 75.9259 883.217C118.94 932.758 161.955 959.945 208.236 965.986C239.272 970.215 305.155 960.549 334.013 947.257C344.902 942.424 351.436 941.82 351.436 945.445C351.436 949.07 337.824 978.069 321.489 1010.09C281.197 1087.42 203.336 1259 208.781 1259C210.959 1259 223.482 1235.44 236.549 1207.65C259.962 1158.11 272.486 1139.38 277.93 1145.42C279.564 1147.23 271.941 1168.98 261.596 1194.96C250.706 1220.33 243.083 1243.29 244.717 1245.71C247.984 1251.75 350.347 1243.9 384.105 1234.83C424.397 1223.96 448.899 1201 476.668 1146.63C501.17 1098.9 543.64 1033.05 626.402 914.633C667.783 855.426 707.531 788.365 784.303 648.806C801.727 617.39 821.328 581.745 828.407 570.266C867.065 504.414 876.866 465.748 860.531 447.624C839.841 424.062 751.089 381.167 724.41 381.771C718.42 381.771 692.829 392.646 667.238 405.937C641.648 419.228 599.178 440.978 571.953 455.478C379.205 555.163 299.71 596.849 298.077 598.057C291.543 602.891 306.244 627.057 320.4 637.327C341.635 651.223 393.362 652.431 457.611 639.744C481.569 634.911 503.348 633.702 505.526 636.119C509.882 640.952 412.419 724.325 337.824 779.907C274.664 827.031 212.048 854.218 167.4 854.218C148.343 854.218 148.343 854.218 151.61 830.052C153.243 816.761 177.745 753.325 206.058 689.284L257.784 573.287L334.013 482.664C410.241 391.437 469.045 333.439 599.178 220.462C638.381 186.63 674.317 151.589 679.217 142.527C691.196 122.59 691.74 87.5488 681.395 59.7579C673.228 38.6125 630.213 2.3634 613.334 2.3634C608.434 2.3634 581.21 13.2382 552.352 25.9254Z" fill="#4A0D44" fill-opacity="0.05"/>
<path d="M1125.47 844.551C1100.97 859.655 1067.21 897.717 1050.34 929.133C1044.35 939.403 1036.72 953.903 1032.37 961.757L1024.74 975.048L985.541 942.424C933.27 898.321 923.47 894.696 896.79 907.987C854.32 929.133 855.409 958.132 900.057 1028.82C921.836 1063.25 1058.5 1210.67 1068.85 1210.67C1074.29 1210.67 1099.34 1182.27 1158.14 1107.96C1217.49 1032.44 1244.17 955.111 1232.19 891.675C1220.76 833.072 1175.02 813.135 1125.47 844.551ZM1164.68 912.216C1171.21 941.216 1163.04 985.319 1142.9 1030.63C1122.75 1076.55 1094.44 1114 1086.82 1105.54C1084.09 1103.13 1082.46 1075.94 1083 1045.73C1083 995.589 1084.64 986.527 1100.43 952.694C1125.47 898.925 1157.05 878.384 1164.68 912.216Z" fill="#4A0D44" fill-opacity="0.05"/>
</svg>
